<mxfile host="Electron" modified="2024-02-09T17:08:20.281Z" agent="Mozilla/5.0 (Windows NT 10.0; Win64; x64) AppleWebKit/537.36 (KHTML, like Gecko) draw.io/22.0.2 Chrome/114.0.5735.289 Electron/25.8.4 Safari/537.36" etag="WGZKT-LQIDLtkgUBhWce" version="22.0.2" type="device">
  <diagram name="Page-1" id="12e1b939-464a-85fe-373e-61e167be1490">
    <mxGraphModel dx="1036" dy="606" grid="1" gridSize="10" guides="1" tooltips="1" connect="1" arrows="1" fold="1" page="1" pageScale="1.5" pageWidth="827" pageHeight="1169" background="none" math="0" shadow="0">
      <root>
        <mxCell id="0" />
        <mxCell id="1" parent="0" />
        <mxCell id="eyLyEnKpjBDCD3jTa-gf-6" value="" style="endArrow=none;html=1;rounded=0;strokeWidth=10;fillColor=#647687;strokeColor=#7FA9D4;startArrow=none;startFill=0;endFill=0;" parent="1" edge="1">
          <mxGeometry width="50" height="50" relative="1" as="geometry">
            <mxPoint x="400" y="320" as="sourcePoint" />
            <mxPoint x="560" y="320" as="targetPoint" />
          </mxGeometry>
        </mxCell>
        <mxCell id="eyLyEnKpjBDCD3jTa-gf-7" value="" style="endArrow=none;html=1;rounded=0;strokeWidth=10;fillColor=#647687;strokeColor=#7FA9D4;startArrow=none;startFill=0;endFill=0;" parent="1" edge="1">
          <mxGeometry width="50" height="50" relative="1" as="geometry">
            <mxPoint x="560" y="320" as="sourcePoint" />
            <mxPoint x="720" y="320" as="targetPoint" />
          </mxGeometry>
        </mxCell>
        <mxCell id="eyLyEnKpjBDCD3jTa-gf-8" value="" style="endArrow=none;html=1;rounded=0;strokeWidth=10;fillColor=#647687;strokeColor=#7FA9D4;startArrow=none;startFill=0;endFill=0;" parent="1" edge="1">
          <mxGeometry width="50" height="50" relative="1" as="geometry">
            <mxPoint x="720" y="320" as="sourcePoint" />
            <mxPoint x="880" y="320" as="targetPoint" />
          </mxGeometry>
        </mxCell>
        <mxCell id="eyLyEnKpjBDCD3jTa-gf-3" value="" style="endArrow=none;html=1;rounded=0;strokeWidth=10;fillColor=#647687;strokeColor=#7FA9D4;startArrow=none;startFill=0;endFill=0;" parent="1" edge="1">
          <mxGeometry width="50" height="50" relative="1" as="geometry">
            <mxPoint x="240" y="320" as="sourcePoint" />
            <mxPoint x="400" y="320" as="targetPoint" />
          </mxGeometry>
        </mxCell>
        <mxCell id="eyLyEnKpjBDCD3jTa-gf-2" value="" style="endArrow=none;html=1;rounded=0;strokeWidth=10;fillColor=#647687;strokeColor=#7FA9D4;startArrow=none;startFill=0;endFill=0;endSize=6;" parent="1" edge="1">
          <mxGeometry width="50" height="50" relative="1" as="geometry">
            <mxPoint x="80" y="320" as="sourcePoint" />
            <mxPoint x="240" y="320" as="targetPoint" />
          </mxGeometry>
        </mxCell>
        <mxCell id="60da8b9f42644d3a-2" value="" style="whiteSpace=wrap;html=1;rounded=1;shadow=0;strokeWidth=8;fontSize=20;align=center;fillColor=#87E087;strokeColor=#FFFFFF;" parent="1" vertex="1">
          <mxGeometry x="80" y="400" width="200" height="320" as="geometry" />
        </mxCell>
        <mxCell id="60da8b9f42644d3a-3" value="Work package 0" style="text;html=1;strokeColor=none;fillColor=none;align=center;verticalAlign=middle;whiteSpace=wrap;rounded=0;shadow=0;fontSize=20;fontColor=#FFFFFF;fontStyle=1" parent="1" vertex="1">
          <mxGeometry x="80" y="410" width="200" height="70" as="geometry" />
        </mxCell>
        <mxCell id="60da8b9f42644d3a-4" value="Project knowledge" style="text;html=1;strokeColor=none;fillColor=none;align=center;verticalAlign=middle;whiteSpace=wrap;rounded=0;shadow=0;fontSize=15;fontColor=#FFFFFF;fontStyle=1" parent="1" vertex="1">
          <mxGeometry x="80" y="640" width="200" height="70" as="geometry" />
        </mxCell>
        <mxCell id="60da8b9f42644d3a-6" value="" style="line;strokeWidth=2;html=1;rounded=0;shadow=0;fontSize=27;align=center;fillColor=none;strokeColor=#FFFFFF;" parent="1" vertex="1">
          <mxGeometry x="100" y="480" width="160" height="20" as="geometry" />
        </mxCell>
        <mxCell id="60da8b9f42644d3a-7" value="" style="line;strokeWidth=2;html=1;rounded=0;shadow=0;fontSize=27;align=center;fillColor=none;strokeColor=#FFFFFF;" parent="1" vertex="1">
          <mxGeometry x="100" y="620" width="160" height="20" as="geometry" />
        </mxCell>
        <mxCell id="60da8b9f42644d3a-9" value="" style="html=1;shadow=0;dashed=0;align=center;verticalAlign=middle;shape=mxgraph.arrows2.stylisedArrow;dy=0.66;dx=32.1;notch=15;feather=0.51;rounded=0;strokeWidth=1;fontSize=27;strokeColor=none;fillColor=#fff2cc;" parent="1" vertex="1">
          <mxGeometry x="145" y="535" width="70" height="50" as="geometry" />
        </mxCell>
        <mxCell id="OCtpXQh2a2ZLi8rAsqvA-3" value="Literature search" style="text;html=1;strokeColor=none;fillColor=none;align=center;verticalAlign=middle;whiteSpace=wrap;rounded=0;shadow=0;fontSize=15;fontColor=#FFFFFF;fontStyle=1" parent="1" vertex="1">
          <mxGeometry x="280" y="640" width="200" height="70" as="geometry" />
        </mxCell>
        <mxCell id="OCtpXQh2a2ZLi8rAsqvA-4" value="" style="line;strokeWidth=2;html=1;rounded=0;shadow=0;fontSize=27;align=center;fillColor=none;strokeColor=#FFFFFF;" parent="1" vertex="1">
          <mxGeometry x="300" y="480" width="160" height="20" as="geometry" />
        </mxCell>
        <mxCell id="OCtpXQh2a2ZLi8rAsqvA-5" value="" style="line;strokeWidth=2;html=1;rounded=0;shadow=0;fontSize=27;align=center;fillColor=none;strokeColor=#FFFFFF;" parent="1" vertex="1">
          <mxGeometry x="300" y="620" width="160" height="20" as="geometry" />
        </mxCell>
        <mxCell id="OCtpXQh2a2ZLi8rAsqvA-7" value="" style="whiteSpace=wrap;html=1;rounded=1;shadow=0;strokeWidth=8;fontSize=20;align=center;fillColor=#FFC001;strokeColor=#FFFFFF;" parent="1" vertex="1">
          <mxGeometry x="280" y="400" width="200" height="320" as="geometry" />
        </mxCell>
        <mxCell id="OCtpXQh2a2ZLi8rAsqvA-9" value="State of the art" style="text;html=1;strokeColor=none;fillColor=none;align=center;verticalAlign=middle;whiteSpace=wrap;rounded=0;shadow=0;fontSize=15;fontColor=#FFFFFF;fontStyle=1" parent="1" vertex="1">
          <mxGeometry x="280" y="640" width="200" height="70" as="geometry" />
        </mxCell>
        <mxCell id="OCtpXQh2a2ZLi8rAsqvA-11" value="" style="line;strokeWidth=2;html=1;rounded=0;shadow=0;fontSize=27;align=center;fillColor=none;strokeColor=#FFFFFF;" parent="1" vertex="1">
          <mxGeometry x="300" y="620" width="160" height="20" as="geometry" />
        </mxCell>
        <mxCell id="OCtpXQh2a2ZLi8rAsqvA-13" value="Administration done" style="ellipse;whiteSpace=wrap;html=1;rounded=0;shadow=0;strokeWidth=6;fontSize=14;align=center;fillColor=#BFB4A9;strokeColor=#FFFFFF;fontColor=#FFFFFF;fontStyle=0" parent="1" vertex="1">
          <mxGeometry x="225" y="505" width="110" height="110" as="geometry" />
        </mxCell>
        <mxCell id="OCtpXQh2a2ZLi8rAsqvA-14" value="" style="whiteSpace=wrap;html=1;rounded=1;shadow=0;strokeWidth=8;fontSize=20;align=center;fillColor=#66B2FF;strokeColor=#FFFFFF;" parent="1" vertex="1">
          <mxGeometry x="480" y="400" width="200" height="320" as="geometry" />
        </mxCell>
        <mxCell id="OCtpXQh2a2ZLi8rAsqvA-15" value="Work package 2" style="text;html=1;strokeColor=none;fillColor=none;align=center;verticalAlign=middle;whiteSpace=wrap;rounded=0;shadow=0;fontSize=20;fontColor=#FFFFFF;fontStyle=1" parent="1" vertex="1">
          <mxGeometry x="480" y="410" width="200" height="70" as="geometry" />
        </mxCell>
        <mxCell id="OCtpXQh2a2ZLi8rAsqvA-16" value="Cloud infrastructure" style="text;html=1;strokeColor=none;fillColor=none;align=center;verticalAlign=middle;whiteSpace=wrap;rounded=0;shadow=0;fontSize=15;fontColor=#FFFFFF;fontStyle=1" parent="1" vertex="1">
          <mxGeometry x="480" y="640" width="200" height="70" as="geometry" />
        </mxCell>
        <mxCell id="OCtpXQh2a2ZLi8rAsqvA-17" value="" style="line;strokeWidth=2;html=1;rounded=0;shadow=0;fontSize=27;align=center;fillColor=none;strokeColor=#FFFFFF;" parent="1" vertex="1">
          <mxGeometry x="500" y="480" width="160" height="20" as="geometry" />
        </mxCell>
        <mxCell id="OCtpXQh2a2ZLi8rAsqvA-18" value="" style="line;strokeWidth=2;html=1;rounded=0;shadow=0;fontSize=27;align=center;fillColor=none;strokeColor=#FFFFFF;" parent="1" vertex="1">
          <mxGeometry x="500" y="620" width="160" height="20" as="geometry" />
        </mxCell>
        <mxCell id="OCtpXQh2a2ZLi8rAsqvA-20" value="" style="whiteSpace=wrap;html=1;rounded=1;shadow=0;strokeWidth=8;fontSize=20;align=center;fillColor=#FF66B3;strokeColor=#FFFFFF;" parent="1" vertex="1">
          <mxGeometry x="680" y="400" width="200" height="320" as="geometry" />
        </mxCell>
        <mxCell id="OCtpXQh2a2ZLi8rAsqvA-21" value="Work package 3" style="text;html=1;strokeColor=none;fillColor=none;align=center;verticalAlign=middle;whiteSpace=wrap;rounded=0;shadow=0;fontSize=20;fontColor=#FFFFFF;fontStyle=1" parent="1" vertex="1">
          <mxGeometry x="680" y="410" width="200" height="70" as="geometry" />
        </mxCell>
        <mxCell id="OCtpXQh2a2ZLi8rAsqvA-22" value="Reference architecture" style="text;html=1;strokeColor=none;fillColor=none;align=center;verticalAlign=middle;whiteSpace=wrap;rounded=0;shadow=0;fontSize=15;fontColor=#FFFFFF;fontStyle=1" parent="1" vertex="1">
          <mxGeometry x="680" y="640" width="200" height="70" as="geometry" />
        </mxCell>
        <mxCell id="OCtpXQh2a2ZLi8rAsqvA-23" value="" style="line;strokeWidth=2;html=1;rounded=0;shadow=0;fontSize=27;align=center;fillColor=none;strokeColor=#FFFFFF;" parent="1" vertex="1">
          <mxGeometry x="700" y="480" width="160" height="20" as="geometry" />
        </mxCell>
        <mxCell id="OCtpXQh2a2ZLi8rAsqvA-24" value="" style="line;strokeWidth=2;html=1;rounded=0;shadow=0;fontSize=27;align=center;fillColor=none;strokeColor=#FFFFFF;" parent="1" vertex="1">
          <mxGeometry x="700" y="620" width="160" height="20" as="geometry" />
        </mxCell>
        <mxCell id="OCtpXQh2a2ZLi8rAsqvA-26" value="Start" style="ellipse;whiteSpace=wrap;html=1;rounded=0;shadow=0;strokeWidth=6;fontSize=14;align=center;fillColor=#BFB4A9;strokeColor=#FFFFFF;fontColor=#FFFFFF;fontStyle=0" parent="1" vertex="1">
          <mxGeometry x="25" y="505" width="110" height="110" as="geometry" />
        </mxCell>
        <mxCell id="OCtpXQh2a2ZLi8rAsqvA-28" value="" style="html=1;shadow=0;dashed=0;align=center;verticalAlign=middle;shape=mxgraph.arrows2.stylisedArrow;dy=0.66;dx=32.1;notch=15;feather=0.51;rounded=0;strokeWidth=1;fontSize=27;strokeColor=none;fillColor=#fff2cc;" parent="1" vertex="1">
          <mxGeometry x="345" y="535" width="70" height="50" as="geometry" />
        </mxCell>
        <mxCell id="OCtpXQh2a2ZLi8rAsqvA-29" value="" style="html=1;shadow=0;dashed=0;align=center;verticalAlign=middle;shape=mxgraph.arrows2.stylisedArrow;dy=0.66;dx=32.1;notch=15;feather=0.51;rounded=0;strokeWidth=1;fontSize=27;strokeColor=none;fillColor=#fff2cc;" parent="1" vertex="1">
          <mxGeometry x="545" y="535" width="70" height="50" as="geometry" />
        </mxCell>
        <mxCell id="OCtpXQh2a2ZLi8rAsqvA-30" value="" style="html=1;shadow=0;dashed=0;align=center;verticalAlign=middle;shape=mxgraph.arrows2.stylisedArrow;dy=0.66;dx=32.1;notch=15;feather=0.51;rounded=0;strokeWidth=1;fontSize=27;strokeColor=none;fillColor=#fff2cc;" parent="1" vertex="1">
          <mxGeometry x="745" y="535" width="70" height="50" as="geometry" />
        </mxCell>
        <mxCell id="OCtpXQh2a2ZLi8rAsqvA-31" value="Analysis done" style="ellipse;whiteSpace=wrap;html=1;rounded=0;shadow=0;strokeWidth=6;fontSize=14;align=center;fillColor=#BFB4A9;strokeColor=#FFFFFF;fontColor=#FFFFFF;fontStyle=0" parent="1" vertex="1">
          <mxGeometry x="425" y="505" width="110" height="110" as="geometry" />
        </mxCell>
        <mxCell id="OCtpXQh2a2ZLi8rAsqvA-32" value="Implementation done" style="ellipse;whiteSpace=wrap;html=1;rounded=0;shadow=0;strokeWidth=6;fontSize=14;align=center;fillColor=#BFB4A9;strokeColor=#FFFFFF;fontColor=#FFFFFF;fontStyle=0" parent="1" vertex="1">
          <mxGeometry x="625" y="505" width="110" height="110" as="geometry" />
        </mxCell>
        <mxCell id="OCtpXQh2a2ZLi8rAsqvA-33" value="End" style="ellipse;whiteSpace=wrap;html=1;rounded=0;shadow=0;strokeWidth=6;fontSize=14;align=center;fillColor=#BFB4A9;strokeColor=#FFFFFF;fontColor=#FFFFFF;fontStyle=0" parent="1" vertex="1">
          <mxGeometry x="825" y="505" width="110" height="110" as="geometry" />
        </mxCell>
        <mxCell id="OCtpXQh2a2ZLi8rAsqvA-40" value="Work package 1" style="text;html=1;strokeColor=none;fillColor=none;align=center;verticalAlign=middle;whiteSpace=wrap;rounded=0;shadow=0;fontSize=20;fontColor=#FFFFFF;fontStyle=1" parent="1" vertex="1">
          <mxGeometry x="280" y="410" width="200" height="70" as="geometry" />
        </mxCell>
        <mxCell id="OCtpXQh2a2ZLi8rAsqvA-41" value="" style="line;strokeWidth=2;html=1;rounded=0;shadow=0;fontSize=27;align=center;fillColor=none;strokeColor=#FFFFFF;" parent="1" vertex="1">
          <mxGeometry x="300" y="480" width="160" height="20" as="geometry" />
        </mxCell>
        <mxCell id="OCtpXQh2a2ZLi8rAsqvA-45" value="" style="rhombus;whiteSpace=wrap;html=1;fillColor=#7D0000;strokeColor=none;fontColor=#ffffff;rounded=1;" parent="1" vertex="1">
          <mxGeometry x="860" y="300" width="40" height="40" as="geometry" />
        </mxCell>
        <mxCell id="OCtpXQh2a2ZLi8rAsqvA-47" value="September" style="text;html=1;strokeColor=none;fillColor=none;align=center;verticalAlign=middle;whiteSpace=wrap;rounded=0;fontSize=15;" parent="1" vertex="1">
          <mxGeometry x="50" y="280" width="60" height="30" as="geometry" />
        </mxCell>
        <mxCell id="OCtpXQh2a2ZLi8rAsqvA-48" value="October" style="text;html=1;strokeColor=none;fillColor=none;align=center;verticalAlign=middle;whiteSpace=wrap;rounded=0;fontSize=15;" parent="1" vertex="1">
          <mxGeometry x="210" y="280" width="60" height="30" as="geometry" />
        </mxCell>
        <mxCell id="OCtpXQh2a2ZLi8rAsqvA-49" value="November" style="text;html=1;strokeColor=none;fillColor=none;align=center;verticalAlign=middle;whiteSpace=wrap;rounded=0;fontSize=15;" parent="1" vertex="1">
          <mxGeometry x="370" y="280" width="60" height="30" as="geometry" />
        </mxCell>
        <mxCell id="OCtpXQh2a2ZLi8rAsqvA-50" value="December" style="text;html=1;strokeColor=none;fillColor=none;align=center;verticalAlign=middle;whiteSpace=wrap;rounded=0;fontSize=15;" parent="1" vertex="1">
          <mxGeometry x="530" y="280" width="60" height="30" as="geometry" />
        </mxCell>
        <mxCell id="OCtpXQh2a2ZLi8rAsqvA-51" value="January" style="text;html=1;strokeColor=none;fillColor=none;align=center;verticalAlign=middle;whiteSpace=wrap;rounded=0;fontSize=15;" parent="1" vertex="1">
          <mxGeometry x="690" y="280" width="60" height="30" as="geometry" />
        </mxCell>
        <mxCell id="OCtpXQh2a2ZLi8rAsqvA-52" value="February" style="text;html=1;strokeColor=none;fillColor=none;align=center;verticalAlign=middle;whiteSpace=wrap;rounded=0;fontSize=15;" parent="1" vertex="1">
          <mxGeometry x="850" y="280" width="60" height="30" as="geometry" />
        </mxCell>
        <mxCell id="OCtpXQh2a2ZLi8rAsqvA-35" value="" style="rhombus;whiteSpace=wrap;html=1;fillColor=#7D0000;strokeColor=none;fontColor=#ffffff;rounded=1;" parent="1" vertex="1">
          <mxGeometry x="60" y="300" width="40" height="40" as="geometry" />
        </mxCell>
        <mxCell id="OCtpXQh2a2ZLi8rAsqvA-75" value="" style="endArrow=none;dashed=1;html=1;dashPattern=1 1;strokeWidth=3;rounded=0;strokeColor=#808080;entryX=0.5;entryY=1;entryDx=0;entryDy=0;" parent="1" target="OCtpXQh2a2ZLi8rAsqvA-45" edge="1">
          <mxGeometry width="50" height="50" relative="1" as="geometry">
            <mxPoint x="880" y="505" as="sourcePoint" />
            <mxPoint x="879.3000000000002" y="351.56000000000006" as="targetPoint" />
          </mxGeometry>
        </mxCell>
        <mxCell id="OCtpXQh2a2ZLi8rAsqvA-43" value="" style="rhombus;whiteSpace=wrap;html=1;fillColor=#7D0000;strokeColor=none;fontColor=#ffffff;rounded=1;" parent="1" vertex="1">
          <mxGeometry x="220" y="300" width="40" height="40" as="geometry" />
        </mxCell>
        <mxCell id="OCtpXQh2a2ZLi8rAsqvA-54" value="" style="rhombus;whiteSpace=wrap;html=1;fillColor=#7D0000;strokeColor=none;fontColor=#ffffff;rounded=1;strokeWidth=1;" parent="1" vertex="1">
          <mxGeometry x="380" y="300" width="40" height="40" as="geometry" />
        </mxCell>
        <mxCell id="OCtpXQh2a2ZLi8rAsqvA-56" value="" style="rhombus;whiteSpace=wrap;html=1;fillColor=#7D0000;strokeColor=none;fontColor=#ffffff;rounded=1;" parent="1" vertex="1">
          <mxGeometry x="540" y="300" width="40" height="40" as="geometry" />
        </mxCell>
        <mxCell id="OCtpXQh2a2ZLi8rAsqvA-58" value="" style="rhombus;whiteSpace=wrap;html=1;fillColor=#7D0000;strokeColor=none;fontColor=#ffffff;rounded=1;" parent="1" vertex="1">
          <mxGeometry x="700" y="300" width="40" height="40" as="geometry" />
        </mxCell>
        <mxCell id="OCtpXQh2a2ZLi8rAsqvA-76" value="" style="curved=1;endArrow=none;html=1;rounded=0;dashed=1;dashPattern=1 1;strokeColor=#808080;strokeWidth=3;endFill=0;exitX=0.5;exitY=0;exitDx=0;exitDy=0;" parent="1" edge="1">
          <mxGeometry width="50" height="50" relative="1" as="geometry">
            <mxPoint x="80" y="505" as="sourcePoint" />
            <mxPoint x="180" y="325" as="targetPoint" />
            <Array as="points">
              <mxPoint x="80.52999999999997" y="455" />
              <mxPoint x="81" y="380" />
              <mxPoint x="180" y="370" />
            </Array>
          </mxGeometry>
        </mxCell>
        <mxCell id="eyLyEnKpjBDCD3jTa-gf-9" value="" style="curved=1;endArrow=none;html=1;rounded=0;dashed=1;dashPattern=1 1;strokeColor=#808080;strokeWidth=3;endFill=0;exitX=0.5;exitY=0;exitDx=0;exitDy=0;entryX=0.5;entryY=1;entryDx=0;entryDy=0;" parent="1" target="OCtpXQh2a2ZLi8rAsqvA-43" edge="1">
          <mxGeometry width="50" height="50" relative="1" as="geometry">
            <mxPoint x="280" y="505" as="sourcePoint" />
            <mxPoint x="180" y="325" as="targetPoint" />
            <Array as="points">
              <mxPoint x="279.47" y="455" />
              <mxPoint x="280" y="400" />
              <mxPoint x="240" y="370" />
            </Array>
          </mxGeometry>
        </mxCell>
        <mxCell id="eyLyEnKpjBDCD3jTa-gf-10" value="" style="curved=1;endArrow=none;html=1;rounded=0;dashed=1;dashPattern=1 1;strokeColor=#808080;strokeWidth=3;endFill=0;exitX=0.5;exitY=0;exitDx=0;exitDy=0;entryX=0.5;entryY=1;entryDx=0;entryDy=0;" parent="1" target="OCtpXQh2a2ZLi8rAsqvA-54" edge="1">
          <mxGeometry width="50" height="50" relative="1" as="geometry">
            <mxPoint x="480" y="505" as="sourcePoint" />
            <mxPoint x="440" y="340" as="targetPoint" />
            <Array as="points">
              <mxPoint x="479.47" y="455" />
              <mxPoint x="480" y="390" />
              <mxPoint x="400" y="370" />
            </Array>
          </mxGeometry>
        </mxCell>
        <mxCell id="eyLyEnKpjBDCD3jTa-gf-11" value="" style="endArrow=none;dashed=1;html=1;dashPattern=1 1;strokeWidth=3;rounded=0;strokeColor=#808080;exitX=0.5;exitY=0;exitDx=0;exitDy=0;" parent="1" edge="1">
          <mxGeometry width="50" height="50" relative="1" as="geometry">
            <mxPoint x="680" y="505" as="sourcePoint" />
            <mxPoint x="680" y="325" as="targetPoint" />
          </mxGeometry>
        </mxCell>
      </root>
    </mxGraphModel>
  </diagram>
</mxfile>
